<svg width="25" height="25" viewBox="0 0 25 25" fill="none" xmlns="http://www.w3.org/2000/svg">
<path d="M12.5 3.125C14.2188 3.125 15.625 4.53125 15.625 6.25C15.625 7.96875 14.2188 9.375 12.5 9.375C10.7812 9.375 9.375 7.96875 9.375 6.25C9.375 4.53125 10.7812 3.125 12.5 3.125ZM12.5 17.1875C16.7188 17.1875 21.5625 19.2031 21.875 20.3125V21.875H3.125V20.3281C3.4375 19.2031 8.28125 17.1875 12.5 17.1875ZM12.5 0C9.04688 0 6.25 2.79688 6.25 6.25C6.25 9.70312 9.04688 12.5 12.5 12.5C15.9531 12.5 18.75 9.70312 18.75 6.25C18.75 2.79688 15.9531 0 12.5 0ZM12.5 14.0625C8.32812 14.0625 0 16.1562 0 20.3125V25H25V20.3125C25 16.1562 16.6719 14.0625 12.5 14.0625Z" fill="#282828"/>
</svg>
